<svg width="11" height="14" viewBox="0 0 11 14" fill="none" xmlns="http://www.w3.org/2000/svg">
<path d="M0.494141 11.2168C0.494141 12.4414 1.09766 13.0508 2.31055 13.0508H8.5332C9.74609 13.0508 10.3496 12.4414 10.3496 11.2168V2.32812C10.3496 1.10938 9.74609 0.488281 8.5332 0.488281H2.31055C1.09766 0.488281 0.494141 1.10938 0.494141 2.32812V11.2168ZM1.4375 11.1992V2.3457C1.4375 1.75977 1.74805 1.43164 2.35742 1.43164H8.48633C9.0957 1.43164 9.40625 1.75977 9.40625 2.3457V11.1992C9.40625 11.7852 9.0957 12.1074 8.48633 12.1074H2.35742C1.74805 12.1074 1.4375 11.7852 1.4375 11.1992ZM3.17188 3.5H7.89453C8.10547 3.5 8.25781 3.3418 8.25781 3.13672C8.25781 2.9375 8.10547 2.7793 7.89453 2.7793H3.17188C2.95508 2.7793 2.80273 2.9375 2.80273 3.13672C2.80273 3.3418 2.95508 3.5 3.17188 3.5ZM3.17188 5.19922H5.94336C6.14844 5.19922 6.30664 5.04102 6.30664 4.83594C6.30664 4.63672 6.14844 4.47852 5.94336 4.47852H3.17188C2.95508 4.47852 2.80273 4.63672 2.80273 4.83594C2.80273 5.04102 2.95508 5.19922 3.17188 5.19922ZM3.25977 11H7.58984C8.10547 11 8.36914 10.7363 8.36914 10.2207V6.96289C8.36914 6.44727 8.10547 6.17773 7.58984 6.17773H3.25977C2.76172 6.17773 2.47461 6.44727 2.47461 6.96289V10.2207C2.47461 10.7363 2.76172 11 3.25977 11Z" fill="#808080"/>
</svg>
