<svg width="23" height="11" viewBox="0 0 23 11" fill="none" xmlns="http://www.w3.org/2000/svg">
<path d="M8.18225 10.8122H15.5416C16.0065 10.8122 16.3307 10.7458 16.5143 10.613C16.7018 10.4841 16.7955 10.2907 16.7955 10.0329C16.7955 9.6579 16.6803 9.26141 16.4498 8.84344C16.2233 8.42548 15.8951 8.03485 15.4655 7.67157C15.0397 7.30438 14.5221 7.00751 13.9127 6.78094C13.3073 6.55048 12.6237 6.43524 11.8619 6.43524C11.1041 6.43524 10.4205 6.55048 9.81116 6.78094C9.20569 7.00751 8.68811 7.30438 8.25842 7.67157C7.82874 8.03485 7.50061 8.42548 7.27405 8.84344C7.04749 9.26141 6.9342 9.6579 6.9342 10.0329C6.9342 10.2907 7.026 10.4841 7.20959 10.613C7.39709 10.7458 7.72131 10.8122 8.18225 10.8122ZM11.8678 5.38641C12.2858 5.38641 12.6725 5.27313 13.028 5.04657C13.3834 4.8161 13.6686 4.50555 13.8834 4.11493C14.1022 3.7243 14.2115 3.28485 14.2115 2.79657C14.2115 2.3161 14.1022 1.88641 13.8834 1.50751C13.6686 1.12469 13.3834 0.823914 13.028 0.605164C12.6725 0.386414 12.2858 0.277039 11.8678 0.277039C11.4498 0.277039 11.0631 0.388367 10.7076 0.611023C10.3522 0.833679 10.0651 1.13641 9.84631 1.51923C9.63147 1.90204 9.52405 2.33173 9.52405 2.80829C9.52405 3.29266 9.63147 3.73016 9.84631 4.12079C10.0651 4.50751 10.3522 4.8161 10.7076 5.04657C11.0631 5.27313 11.4498 5.38641 11.8678 5.38641ZM1.84827 10.8122H6.29553C6.14319 10.5895 6.07092 10.322 6.07874 10.0095C6.08655 9.69696 6.15881 9.36884 6.29553 9.02509C6.43225 8.68134 6.61975 8.3493 6.85803 8.02899C7.10022 7.70477 7.37952 7.41962 7.69592 7.17352C7.3678 6.95477 6.99084 6.77509 6.56506 6.63446C6.14319 6.48993 5.65881 6.41766 5.11194 6.41766C4.45178 6.41766 3.85608 6.52704 3.32483 6.74579C2.79749 6.96063 2.34631 7.24579 1.97131 7.60126C1.60022 7.95282 1.31506 8.33759 1.11584 8.75555C0.916626 9.17352 0.817017 9.58563 0.817017 9.99188C0.817017 10.2536 0.895142 10.4548 1.05139 10.5954C1.21155 10.7399 1.47717 10.8122 1.84827 10.8122ZM5.11194 5.52118C5.47913 5.52118 5.81702 5.42157 6.12561 5.22235C6.4342 5.02313 6.68225 4.7536 6.86975 4.41376C7.05725 4.07001 7.151 3.68719 7.151 3.26532C7.151 2.84344 7.05725 2.46844 6.86975 2.14032C6.68225 1.80829 6.43225 1.54852 6.11975 1.36102C5.81116 1.16962 5.47522 1.07391 5.11194 1.07391C4.75256 1.07391 4.41663 1.17157 4.10413 1.36688C3.79553 1.55829 3.54553 1.82001 3.35413 2.15204C3.16272 2.48407 3.06897 2.85907 3.07288 3.27704C3.07288 3.69501 3.16663 4.07391 3.35413 4.41376C3.54163 4.7536 3.78967 5.02313 4.09827 5.22235C4.41077 5.42157 4.74866 5.52118 5.11194 5.52118ZM21.8756 10.8122C22.2467 10.8122 22.5104 10.7399 22.6666 10.5954C22.8268 10.4548 22.9069 10.2536 22.9069 9.99188C22.9069 9.58563 22.8073 9.17352 22.608 8.75555C22.4127 8.33759 22.1276 7.95282 21.7526 7.60126C21.3776 7.24579 20.9244 6.96063 20.3932 6.74579C19.8658 6.52704 19.2721 6.41766 18.6119 6.41766C18.0651 6.41766 17.5787 6.48993 17.153 6.63446C16.7311 6.77509 16.3561 6.95477 16.028 7.17352C16.3444 7.41962 16.6217 7.70477 16.86 8.02899C17.1022 8.3493 17.2916 8.68134 17.4283 9.02509C17.5651 9.36884 17.6373 9.69696 17.6451 10.0095C17.653 10.322 17.5807 10.5895 17.4283 10.8122H21.8756ZM18.6119 5.52118C18.9752 5.52118 19.3112 5.42157 19.6198 5.22235C19.9323 5.02313 20.1823 4.7536 20.3698 4.41376C20.5573 4.07391 20.651 3.69501 20.651 3.27704C20.651 2.85907 20.5553 2.48407 20.3639 2.15204C20.1764 1.82001 19.9264 1.55829 19.6139 1.36688C19.3053 1.17157 18.9713 1.07391 18.6119 1.07391C18.2487 1.07391 17.9108 1.16962 17.5983 1.36102C17.2897 1.54852 17.0416 1.80829 16.8541 2.14032C16.6666 2.46844 16.5729 2.84344 16.5729 3.26532C16.5729 3.68719 16.6666 4.07001 16.8541 4.41376C17.0416 4.7536 17.2897 5.02313 17.5983 5.22235C17.9069 5.42157 18.2448 5.52118 18.6119 5.52118Z" fill="#D1BE9E"/>
</svg>
