<svg width="7" height="11" viewBox="0 0 7 11" fill="none" xmlns="http://www.w3.org/2000/svg">
<path d="M1.06909 10.8333H6.02612C6.323 10.8333 6.55542 10.7513 6.72339 10.5872C6.89526 10.4232 6.9812 10.1849 6.9812 9.87238V9.7552C6.9812 9.40363 6.90112 9.05012 6.74097 8.69465C6.58081 8.33918 6.37769 7.99738 6.13159 7.66926C5.8855 7.33723 5.62964 7.03254 5.36401 6.7552C5.10229 6.47395 4.86987 6.23176 4.66675 6.02863C4.48315 5.84504 4.38745 5.65363 4.37964 5.45441C4.37183 5.25129 4.46753 5.05012 4.66675 4.8509C4.86987 4.64777 5.10229 4.40754 5.36401 4.1302C5.62964 3.84895 5.8855 3.54426 6.13159 3.21613C6.37769 2.88801 6.58081 2.54621 6.74097 2.19074C6.90112 1.83527 6.9812 1.4798 6.9812 1.12434V1.02473C6.9812 0.708321 6.89526 0.468086 6.72339 0.304024C6.55542 0.139961 6.323 0.05793 6.02612 0.05793H1.06909C0.776123 0.05793 0.543701 0.139961 0.371826 0.304024C0.199951 0.468086 0.114014 0.708321 0.114014 1.02473V1.12434C0.114014 1.4798 0.194092 1.83527 0.354248 2.19074C0.514404 2.54621 0.717529 2.88801 0.963623 3.21613C1.20972 3.54426 1.46362 3.84895 1.72534 4.1302C1.99097 4.40754 2.22534 4.64777 2.42847 4.8509C2.63159 5.05012 2.72925 5.25129 2.72144 5.45441C2.71362 5.65363 2.61597 5.84504 2.42847 6.02863C2.22534 6.23176 1.99097 6.47395 1.72534 6.7552C1.46362 7.03254 1.20972 7.33723 0.963623 7.66926C0.717529 7.99738 0.514404 8.33918 0.354248 8.69465C0.194092 9.05012 0.114014 9.40363 0.114014 9.7552V9.87238C0.114014 10.1849 0.199951 10.4232 0.371826 10.5872C0.543701 10.7513 0.776123 10.8333 1.06909 10.8333ZM3.9519 4.53449C3.80737 4.65559 3.67261 4.71613 3.54761 4.71613C3.42651 4.71613 3.29175 4.65559 3.14331 4.53449C3.03394 4.44074 2.88354 4.30012 2.69214 4.11262C2.50073 3.92121 2.29761 3.71027 2.08276 3.4798C1.87183 3.24934 1.67456 3.02082 1.49097 2.79426C1.31128 2.5677 1.17261 2.37043 1.07495 2.20246C1.02417 2.10871 1.0105 2.03059 1.03394 1.96809C1.06128 1.90168 1.11987 1.86848 1.20972 1.86848H5.8855C5.97925 1.86848 6.03784 1.90168 6.06128 1.96809C6.08472 2.03059 6.07104 2.10871 6.02026 2.20246C5.92651 2.37043 5.78784 2.5677 5.60425 2.79426C5.42065 3.02082 5.22144 3.24934 5.00659 3.4798C4.79565 3.71027 4.59448 3.92121 4.40308 4.11262C4.21558 4.30012 4.06519 4.44074 3.9519 4.53449Z" fill="#808080"/>
</svg>
