<svg width="14" height="13" viewBox="0 0 14 13" fill="none" xmlns="http://www.w3.org/2000/svg">
<path d="M4.09766 12.209C4.24219 12.209 4.375 12.1699 4.49609 12.0918C4.61719 12.0137 4.76562 11.8965 4.94141 11.7402L6.96289 9.94141H10.7246C11.3066 9.94141 11.7969 9.83789 12.1953 9.63086C12.5938 9.41992 12.8945 9.11523 13.0977 8.7168C13.3047 8.31836 13.4082 7.83203 13.4082 7.25781V2.76953C13.4082 2.19531 13.3047 1.70898 13.0977 1.31055C12.8945 0.912109 12.5938 0.609375 12.1953 0.402344C11.7969 0.191406 11.3066 0.0859375 10.7246 0.0859375H3.17773C2.5957 0.0859375 2.10547 0.191406 1.70703 0.402344C1.30859 0.609375 1.00586 0.912109 0.798828 1.31055C0.595703 1.70898 0.494141 2.19531 0.494141 2.76953V7.25781C0.494141 7.83203 0.595703 8.31836 0.798828 8.7168C1.00586 9.11523 1.30859 9.41992 1.70703 9.63086C2.10547 9.83789 2.5957 9.94141 3.17773 9.94141H3.45898V11.4648C3.45898 11.6914 3.51367 11.8711 3.62305 12.0039C3.73633 12.1406 3.89453 12.209 4.09766 12.209ZM4.33789 11.1367V9.4375C4.33789 9.27734 4.30469 9.16406 4.23828 9.09766C4.17188 9.03125 4.05859 8.99805 3.89844 8.99805H3.17773C2.58398 8.99805 2.14453 8.85156 1.85938 8.55859C1.57812 8.26172 1.4375 7.82617 1.4375 7.25195V2.76953C1.4375 2.19922 1.57812 1.76758 1.85938 1.47461C2.14453 1.17773 2.58398 1.0293 3.17773 1.0293H10.7246C11.3145 1.0293 11.752 1.17773 12.0371 1.47461C12.3223 1.76758 12.4648 2.19922 12.4648 2.76953V7.25195C12.4648 7.82617 12.3223 8.26172 12.0371 8.55859C11.752 8.85156 11.3145 8.99805 10.7246 8.99805H6.92773C6.76367 8.99805 6.63086 9.01562 6.5293 9.05078C6.42773 9.08594 6.32227 9.16016 6.21289 9.27344L4.33789 11.1367ZM3.93359 3.39648H9.89258C9.99023 3.39648 10.0703 3.36328 10.1328 3.29688C10.1992 3.23047 10.2324 3.15039 10.2324 3.05664C10.2324 2.96289 10.1992 2.88477 10.1328 2.82227C10.0703 2.75586 9.99023 2.72266 9.89258 2.72266H3.93359C3.83594 2.72266 3.75391 2.75586 3.6875 2.82227C3.625 2.88477 3.59375 2.96289 3.59375 3.05664C3.59375 3.15039 3.625 3.23047 3.6875 3.29688C3.75391 3.36328 3.83594 3.39648 3.93359 3.39648ZM3.93359 5.30078H9.89258C9.99023 5.30078 10.0703 5.26953 10.1328 5.20703C10.1992 5.14062 10.2324 5.05859 10.2324 4.96094C10.2324 4.87109 10.1992 4.79297 10.1328 4.72656C10.0703 4.65625 9.99023 4.62109 9.89258 4.62109H3.93359C3.83594 4.62109 3.75391 4.65625 3.6875 4.72656C3.625 4.79297 3.59375 4.87109 3.59375 4.96094C3.59375 5.05859 3.625 5.14062 3.6875 5.20703C3.75391 5.26953 3.83594 5.30078 3.93359 5.30078ZM3.93359 7.21094H7.80664C7.90039 7.21094 7.98047 7.17969 8.04688 7.11719C8.11328 7.05078 8.14648 6.9707 8.14648 6.87695C8.14648 6.7793 8.11328 6.69727 8.04688 6.63086C7.98047 6.56445 7.90039 6.53125 7.80664 6.53125H3.93359C3.83594 6.53125 3.75391 6.56445 3.6875 6.63086C3.625 6.69727 3.59375 6.7793 3.59375 6.87695C3.59375 6.9707 3.625 7.05078 3.6875 7.11719C3.75391 7.17969 3.83594 7.21094 3.93359 7.21094Z" fill="#808080"/>
</svg>
