<svg width="21" height="22" viewBox="0 0 21 22" fill="none" xmlns="http://www.w3.org/2000/svg">
<path d="M10.8359 21.0469C16.3535 21.0469 20.9238 16.4863 20.9238 10.959C20.9238 5.44141 16.3535 0.871094 10.8262 0.871094C5.30859 0.871094 0.748047 5.44141 0.748047 10.959C0.748047 16.4863 5.31836 21.0469 10.8359 21.0469ZM13.375 10.4707C12.3203 10.4707 11.4414 9.5332 11.4316 8.33203C11.4316 7.16016 12.3203 6.24219 13.375 6.24219C14.4199 6.24219 15.2988 7.14062 15.2988 8.32227C15.2988 9.5332 14.4199 10.4707 13.375 10.4707ZM7.80859 10.5684C6.90039 10.5684 6.11914 9.74805 6.11914 8.71289C6.10938 7.69727 6.90039 6.88672 7.80859 6.88672C8.7168 6.88672 9.49805 7.67773 9.49805 8.70312C9.49805 9.74805 8.7168 10.5684 7.80859 10.5684ZM5.14258 14.9434C4.49805 14.9434 4.26367 14.6699 4.26367 14.1914C4.26367 12.8926 5.65039 11.3008 7.80859 11.3008C8.66797 11.3008 9.36133 11.5645 9.89844 11.9062C8.82422 12.7461 8.25781 14.2012 8.75586 14.9434H5.14258ZM10.3672 14.9434C9.57617 14.9434 9.29297 14.6992 9.29297 14.2598C9.29297 13.0195 10.8652 11.3203 13.375 11.3203C15.8652 11.3203 17.4277 13.0195 17.4277 14.2598C17.4277 14.6992 17.1641 14.9434 16.3633 14.9434H10.3672Z" fill="#D1BE9E"/>
</svg>
