<svg width="23" height="24" viewBox="0 0 23 24" fill="none" xmlns="http://www.w3.org/2000/svg">
<path d="M5.49023 11.8672C9.00586 11.8672 11.9062 14.7578 11.9062 18.2734C11.9062 19.4551 11.5742 20.5684 10.998 21.5254H19.0645C21.1543 21.5254 22.2383 20.4219 22.2383 18.3223V9.58203H14.9336C13.7129 9.58203 13.127 8.98633 13.127 7.76562V0.382812H8.66406C6.57422 0.382812 5.49023 1.48633 5.49023 3.58594V11.8672ZM15.1094 8.15625H22.1309C22.0723 7.7168 21.75 7.29688 21.252 6.7793L15.9102 1.35938C15.4316 0.871094 14.9922 0.539062 14.543 0.480469V7.59961C14.543 7.9707 14.7383 8.15625 15.1094 8.15625ZM5.49023 23.3027C8.22461 23.3027 10.5195 21.0273 10.5195 18.2734C10.5195 15.5195 8.24414 13.2539 5.49023 13.2539C2.73633 13.2539 0.460938 15.5293 0.460938 18.2734C0.460938 21.0371 2.73633 23.3027 5.49023 23.3027ZM5.49023 21.4668C5.08984 21.4668 4.82617 21.1934 4.82617 20.8027V18.9473H2.9707C2.58008 18.9473 2.30664 18.6836 2.30664 18.2832C2.30664 17.873 2.58008 17.6094 2.9707 17.6094H4.82617V15.7637C4.82617 15.373 5.08984 15.0996 5.49023 15.0996C5.89062 15.0996 6.1543 15.3633 6.1543 15.7637V17.6094H8.00977C8.41016 17.6094 8.67383 17.873 8.67383 18.2832C8.67383 18.6836 8.41016 18.9473 8.00977 18.9473H6.1543V20.8027C6.1543 21.1934 5.89062 21.4668 5.49023 21.4668Z" fill="#D1BE9E"/>
</svg>
