<svg width="22" height="22" viewBox="0 0 22 22" fill="none" xmlns="http://www.w3.org/2000/svg">
<path d="M13.7422 8.86133C15.8809 8.86133 17.6875 6.9668 17.6875 4.51562C17.6875 2.12305 15.8711 0.296875 13.7422 0.296875C11.623 0.296875 9.80664 2.15234 9.80664 4.53516C9.81641 6.9668 11.6133 8.86133 13.7422 8.86133ZM13.7422 10.5898C12.1406 10.5898 10.7344 10.9512 9.57227 11.5176C10.9688 12.6895 11.8672 14.4473 11.8672 16.4102C11.8672 16.9277 11.7988 17.4551 11.6621 17.9434H19.8262C21.4375 17.9434 21.9941 17.4551 21.9941 16.5664C21.9941 14.0469 18.8105 10.5898 13.7422 10.5898ZM5.45117 21.4297C8.17578 21.4297 10.4805 19.1543 10.4805 16.4102C10.4805 13.6562 8.20508 11.3809 5.45117 11.3809C2.69727 11.3809 0.421875 13.6562 0.421875 16.4102C0.421875 19.1641 2.69727 21.4297 5.45117 21.4297ZM5.45117 19.5938C5.05078 19.5938 4.78711 19.3301 4.78711 18.9297V17.0742H2.93164C2.54102 17.0742 2.26758 16.8105 2.26758 16.4102C2.26758 16.0098 2.53125 15.7461 2.93164 15.7461H4.78711V13.8906C4.78711 13.5 5.05078 13.2266 5.45117 13.2266C5.85156 13.2266 6.11523 13.5 6.11523 13.8906V15.7461H7.9707C8.36133 15.7461 8.63477 16.0098 8.63477 16.4102C8.63477 16.8105 8.36133 17.0742 7.9707 17.0742H6.11523V18.9297C6.11523 19.3301 5.85156 19.5938 5.45117 19.5938Z" fill="#A08A88"/>
</svg>
