<svg width="13" height="15" viewBox="0 0 13 15" fill="none" xmlns="http://www.w3.org/2000/svg">
<path d="M2.56519 14.9576H8.073C8.67847 14.9576 9.13159 14.8033 9.43237 14.4948C9.73706 14.1862 9.8894 13.7272 9.8894 13.1178V8.48889H5.79956C5.42065 8.48889 5.14136 8.39905 4.96167 8.21936C4.78198 8.03577 4.69214 7.75647 4.69214 7.38147V3.13928H2.56519C1.95972 3.13928 1.50464 3.29358 1.19995 3.60217C0.89917 3.91077 0.748779 4.36975 0.748779 4.97913V13.1178C0.748779 13.7311 0.89917 14.1901 1.19995 14.4948C1.50464 14.8033 1.95972 14.9576 2.56519 14.9576ZM5.7937 7.68616H9.78394C9.75269 7.57288 9.7019 7.45959 9.63159 7.34631C9.56128 7.23303 9.45972 7.10999 9.3269 6.97717L6.198 3.78967C6.06909 3.65686 5.94604 3.54749 5.82886 3.46155C5.71558 3.37561 5.60229 3.31702 5.48901 3.28577V7.38733C5.48901 7.58655 5.59058 7.68616 5.7937 7.68616ZM10.6863 12.0338H10.9148C11.2156 12.0338 11.4792 11.9948 11.7058 11.9166C11.9324 11.8385 12.1218 11.7233 12.2742 11.5709C12.4265 11.4186 12.5398 11.2272 12.614 10.9967C12.6921 10.7662 12.7312 10.4987 12.7312 10.194V4.63342H9.49097C9.18237 4.63342 8.94409 4.55139 8.77612 4.38733C8.61206 4.21936 8.53003 3.98303 8.53003 3.67834V0.215454H5.40698C4.81323 0.215454 4.36206 0.367798 4.05347 0.672485C3.74487 0.977173 3.59058 1.42249 3.59058 2.00842V2.34241H4.44019C4.85034 2.34241 5.22729 2.401 5.57104 2.51819C5.91479 2.63538 6.25073 2.85803 6.57886 3.18616L9.90698 6.50842C10.2351 6.83655 10.446 7.17639 10.5398 7.52795C10.6375 7.87561 10.6863 8.24866 10.6863 8.64709V12.0338ZM9.60229 3.901H12.6609C12.6453 3.80725 12.6062 3.71741 12.5437 3.63147C12.4851 3.54553 12.4031 3.44983 12.2976 3.34436L9.81909 0.81897C9.71753 0.713501 9.62183 0.629517 9.53198 0.567017C9.44604 0.504517 9.35815 0.467407 9.26831 0.455688L9.27417 3.56116C9.27417 3.78772 9.38354 3.901 9.60229 3.901Z" fill="#D1BE9E"/>
</svg>
