<svg width="12" height="13" viewBox="0 0 12 13" fill="none" xmlns="http://www.w3.org/2000/svg">
<path d="M5.99646 12.5573C9.26599 12.5573 11.973 9.84441 11.973 6.58073C11.973 3.3112 9.26013 0.604172 5.9906 0.604172C2.72693 0.604172 0.0198975 3.3112 0.0198975 6.58073C0.0198975 9.84441 2.73279 12.5573 5.99646 12.5573ZM5.99646 8.57292C4.23279 8.57292 2.87927 9.20573 2.28162 9.90886C1.49646 9.02409 1.02185 7.86394 1.02185 6.58073C1.02185 3.81511 3.22498 1.60027 5.9906 1.60027C8.75623 1.60027 10.9711 3.81511 10.9769 6.58073C10.9828 7.86394 10.5023 9.02995 9.7113 9.90886C9.11951 9.20573 7.76013 8.57292 5.99646 8.57292ZM5.99646 7.57683C7.12732 7.58855 8.00623 6.62761 8.00623 5.36784C8.00623 4.18425 7.12146 3.20573 5.99646 3.20573C4.87146 3.20573 3.98083 4.18425 3.98669 5.36784C3.99255 6.62761 4.87146 7.56511 5.99646 7.57683Z" fill="#808080"/>
</svg>
