<svg width="21" height="24" viewBox="0 0 21 24" fill="none" xmlns="http://www.w3.org/2000/svg">
<path d="M10.8359 23.0371C16.3535 23.0371 20.9238 18.4766 20.9238 12.9492C20.9238 10.7129 20.1719 8.63281 18.9121 6.94336L19.6836 6.16211C19.9375 5.91797 20.0645 5.61523 20.0645 5.32227C20.0645 4.72656 19.5957 4.24805 18.9805 4.24805C18.6289 4.24805 18.375 4.35547 18.1211 4.59961L17.3887 5.3125C15.8848 4.02344 14.0098 3.16406 11.959 2.92969V1.94336C11.959 1.30859 11.4512 0.791016 10.8262 0.791016C10.2207 0.791016 9.70312 1.30859 9.70312 1.94336V2.92969C4.70312 3.49609 0.748047 7.8125 0.748047 12.9492C0.748047 18.4766 5.31836 23.0371 10.8359 23.0371ZM10.8359 14.6387C9.89844 14.6387 9.15625 13.8867 9.15625 12.959C9.15625 12.334 9.50781 11.7969 10.0645 11.4746V6.77734C10.0645 6.34766 10.3965 6.01562 10.8262 6.01562C11.2559 6.01562 11.5977 6.34766 11.5977 6.77734V11.4844C12.1641 11.7871 12.5059 12.3242 12.5059 12.959C12.5059 13.8867 11.7637 14.6387 10.8359 14.6387Z" fill="#A08A88"/>
</svg>
