<svg width="21" height="20" viewBox="0 0 21 20" fill="none" xmlns="http://www.w3.org/2000/svg">
<path d="M3.16602 18.0742H6.33984V18.9727C6.33984 19.4707 6.69141 19.8223 7.18945 19.8223C7.6875 19.8223 8.03906 19.4707 8.03906 18.9727V18.0742H9.60156V18.9727C9.60156 19.4707 9.95312 19.8223 10.4512 19.8223C10.9492 19.8223 11.3008 19.4707 11.3008 18.9727V18.0742H12.873V18.9727C12.873 19.4707 13.2246 19.8223 13.7227 19.8223C14.2207 19.8223 14.5723 19.4707 14.5723 18.9727V18.0742H17.7266C18.2246 18.0742 18.5566 17.7422 18.5566 17.2441V14.0508H19.4648C19.9629 14.0508 20.3145 13.6992 20.3145 13.2012C20.3145 12.7031 19.9629 12.3516 19.4648 12.3516H18.5566V10.7988H19.4648C19.9629 10.7988 20.3145 10.4473 20.3145 9.94922C20.3145 9.45117 19.9629 9.09961 19.4648 9.09961H18.5566V7.53711H19.4648C19.9629 7.53711 20.3145 7.18555 20.3145 6.6875C20.3145 6.18945 19.9629 5.83789 19.4648 5.83789H18.5566V2.68359C18.5566 2.18555 18.2246 1.84375 17.7266 1.84375H14.5527V0.945312C14.5527 0.447266 14.2012 0.0957031 13.7031 0.0957031C13.2051 0.0957031 12.8535 0.447266 12.8535 0.945312V1.84375H11.3008V0.945312C11.3008 0.447266 10.9492 0.0957031 10.4512 0.0957031C9.95312 0.0957031 9.60156 0.447266 9.60156 0.945312V1.84375H8.03906V0.945312C8.03906 0.447266 7.6875 0.0957031 7.18945 0.0957031C6.69141 0.0957031 6.33984 0.447266 6.33984 0.945312V1.84375H3.16602C2.66797 1.84375 2.33594 2.18555 2.33594 2.68359V5.84766H1.33984C0.841797 5.84766 0.490234 6.19922 0.490234 6.69727C0.490234 7.19531 0.841797 7.54688 1.33984 7.54688H2.33594V9.10938H1.33984C0.841797 9.10938 0.490234 9.46094 0.490234 9.95898C0.490234 10.457 0.841797 10.8086 1.33984 10.8086H2.33594V12.3613H1.33984C0.841797 12.3613 0.490234 12.7129 0.490234 13.2109C0.490234 13.709 0.841797 14.0605 1.33984 14.0605H2.33594V17.2441C2.33594 17.7422 2.66797 18.0742 3.16602 18.0742ZM6.78906 14.373C6.28125 14.373 6.02734 14.1191 6.02734 13.6016V6.31641C6.02734 5.79883 6.28125 5.54492 6.78906 5.54492H14.1035C14.6113 5.54492 14.8652 5.79883 14.8652 6.31641V13.6016C14.8652 14.1191 14.6113 14.373 14.1035 14.373H6.78906ZM7.76562 12.8789H13.127C13.2734 12.8789 13.3613 12.7812 13.3613 12.6445V7.27344C13.3613 7.13672 13.2734 7.03906 13.127 7.03906H7.76562C7.61914 7.03906 7.53125 7.13672 7.53125 7.27344V12.6445C7.53125 12.7812 7.61914 12.8789 7.76562 12.8789Z" fill="#A08A88"/>
</svg>
