<svg width="15" height="11" viewBox="0 0 15 11" fill="none" xmlns="http://www.w3.org/2000/svg">
<path d="M2.67078 10.9211H12.8075C13.4247 10.9211 13.8856 10.7687 14.1903 10.4641C14.495 10.1633 14.6473 9.71014 14.6473 9.10468V5.8703C14.6473 5.69452 14.6356 5.54413 14.6122 5.41913C14.5927 5.29413 14.5575 5.18085 14.5067 5.07928C14.4598 4.97772 14.3954 4.8703 14.3134 4.75702L12.2919 2.02069C12.077 1.72772 11.8817 1.50311 11.7059 1.34686C11.5302 1.18671 11.3309 1.07538 11.1083 1.01288C10.8895 0.950378 10.6063 0.919128 10.2587 0.919128H5.2196C4.87195 0.919128 4.58679 0.950378 4.36414 1.01288C4.14539 1.07538 3.94812 1.18671 3.77234 1.34686C3.59656 1.50311 3.4032 1.72772 3.19226 2.02069L1.16492 4.75702C1.08289 4.8703 1.01648 4.97772 0.965698 5.07928C0.918823 5.18085 0.883667 5.29413 0.860229 5.41913C0.840698 5.54413 0.830933 5.69452 0.830933 5.8703V9.10468C0.830933 9.71014 0.983276 10.1633 1.28796 10.4641C1.59656 10.7687 2.0575 10.9211 2.67078 10.9211ZM7.73914 7.5285C7.44617 7.5285 7.19031 7.45624 6.97156 7.31171C6.75671 7.16327 6.5907 6.97577 6.47351 6.74921C6.35632 6.52264 6.29773 6.28827 6.29773 6.04608V6.0285C6.29773 5.89569 6.25671 5.7785 6.17468 5.67694C6.09656 5.57147 5.97546 5.51874 5.8114 5.51874H2.07898C1.98132 5.51874 1.92078 5.48749 1.89734 5.42499C1.87781 5.35858 1.89148 5.29218 1.93835 5.22577L4.10632 2.24921C4.24304 2.06171 4.39734 1.93085 4.56921 1.85663C4.745 1.7785 4.93835 1.73944 5.14929 1.73944H10.329C10.5438 1.73944 10.7372 1.7785 10.9091 1.85663C11.0809 1.93085 11.2352 2.06171 11.3719 2.24921L13.5399 5.22577C13.5829 5.29218 13.5927 5.35858 13.5692 5.42499C13.5497 5.48749 13.493 5.51874 13.3993 5.51874H9.66687C9.50281 5.51874 9.38171 5.57147 9.30359 5.67694C9.22546 5.7785 9.1864 5.89569 9.1864 6.0285V6.04608C9.1864 6.28827 9.12585 6.52264 9.00476 6.74921C8.88757 6.97577 8.7196 7.16327 8.50085 7.31171C8.28601 7.45624 8.0321 7.5285 7.73914 7.5285ZM10.2001 2.60077H5.2782C5.20007 2.60077 5.13367 2.62811 5.07898 2.6828C5.02429 2.73749 4.99695 2.80389 4.99695 2.88202C4.99695 2.96014 5.02429 3.02655 5.07898 3.08124C5.13367 3.13593 5.20007 3.16327 5.2782 3.16327H10.2001C10.2821 3.16327 10.3485 3.13593 10.3993 3.08124C10.454 3.02655 10.4813 2.96014 10.4813 2.88202C10.4813 2.80389 10.454 2.73749 10.3993 2.6828C10.3485 2.62811 10.2821 2.60077 10.2001 2.60077ZM10.9794 3.92499H4.4989C4.41687 3.92499 4.34656 3.95624 4.28796 4.01874C4.23328 4.08124 4.20593 4.15155 4.20593 4.22968C4.20593 4.3078 4.23328 4.37616 4.28796 4.43475C4.34656 4.49335 4.41687 4.52264 4.4989 4.52264H10.9794C11.0614 4.52264 11.1298 4.49335 11.1844 4.43475C11.243 4.37616 11.2723 4.3078 11.2723 4.22968C11.2723 4.15155 11.243 4.08124 11.1844 4.01874C11.1298 3.95624 11.0614 3.92499 10.9794 3.92499Z" fill="#808080"/>
</svg>
